
<svg version="1.1" id="Layer_1" xmlns="http://www.w3.org/2000/svg" xmlns:xlink="http://www.w3.org/1999/xlink" x="0px" y="0px" viewBox="0 0 256 256" style="enable-background:new 0 0 256 256;" xml:space="preserve">
        					<style type="text/css">
        						.st99{fill:none;}
        					</style>
        					<rect class="st99" width="256" height="256"></rect>
        					<g>
        						<g>
        							<path style="fill: #ff0000;" d="M120.7,240c-4-0.6-8.1-1-12.1-1.7C83.4,233.9,62.3,222,45.3,203c-15-16.7-24.2-36.2-27-58.5c-4.3-34.3,5.3-64.6,28.7-90
        								C63.8,36.2,84.7,25,109.3,20.9c5.7-1,11.6-1.2,17.4-1.5c3.3-0.2,5.2,1.6,5.3,4.3c0.1,2.8-1.9,4.7-5.2,4.7
        								c-14.6,0.1-28.5,3.1-41.7,9.4c-29.4,14.1-49,36.9-56,68.8c-9.3,42.1,3.8,77.2,37.6,103.9c20.2,16,43.8,22.4,69.5,20.1
        								c43.2-3.8,78.5-33.7,89.6-75.5c10.3-38.9-4.2-81.2-36.1-105.6c-0.5-0.4-1-0.8-1.5-1.2c-2.2-1.8-2.7-4.4-1.2-6.4
        								c1.6-2.2,4.2-2.5,6.7-0.7c2.3,1.8,4.7,3.6,6.9,5.6c21.6,19.3,33.9,43.4,37.1,72.2c0.1,1.3,0.3,2.5,0.5,3.8c0,4.6,0,9.2,0,13.8
        								c-0.3,2.7-0.6,5.4-1,8.1c-3.1,22-12,41.5-26.8,58.1c-17,19.1-38.1,31-63.3,35.5c-4.1,0.7-8.2,1.2-12.3,1.7
        								C129.8,240,125.2,240,120.7,240z"></path>
        							<path style="fill: #ff0000;" d="M106,90.2c0,1.3,0,2.2,0,3.1c0,28.7,0,57.5,0,86.2c0,1.1-0.1,2.3-0.5,3.4c-0.8,1.8-2.3,2.7-4.3,2.5
        								c-1.9-0.2-3.2-1.2-3.8-3c-0.3-0.8-0.3-1.7-0.3-2.5c0-32.1,0-64.2,0-96.3c0-0.1,0-0.1,0-0.2c0.1-4.7,3.5-6.7,7.6-4.3
        								c10.9,6.5,21.8,13,32.7,19.5c14.9,8.9,29.8,17.8,44.8,26.6c4.6,2.8,4.7,6.3,0.2,9.2c-17.4,11.2-34.9,22.5-52.3,33.7
        								c-3.3,2.2-6,2-7.6-0.4c-1.7-2.5-0.8-4.9,2.7-7.2c15.1-9.8,30.3-19.5,45.4-29.3c0.6-0.4,1.2-0.8,2-1.3
        								C150.3,116.6,128.4,103.5,106,90.2z"></path>
        						</g>
        					</g>
        				</svg>